<svg width="31" height="37" viewBox="0 0 31 37" fill="none" xmlns="http://www.w3.org/2000/svg">
<path d="M28.7548 8.65148L10.3705 0.137191C9.7915 -0.122208 9.24454 -0.014459 8.934 0.466428C8.61544 0.955297 8.75568 1.60779 9.24655 1.92505C9.24655 1.92505 20.1838 8.60359 22.2514 9.71901C24.0305 10.6788 21.9749 11.8102 21.9749 11.8102L3.23999 23.9301C2.57883 24.3591 2.02786 24.86 1.57908 25.4087C1.55904 25.4326 1.54101 25.4566 1.52098 25.4805C1.43483 25.5903 1.35068 25.702 1.27054 25.8138C0.695529 26.6179 0.296824 27.5497 0.120515 28.5614C0.0924654 28.7131 0.0684281 28.8667 0.0503964 29.0183C0.0503964 29.0223 0.048391 29.0263 0.048391 29.0303C-0.194035 31.1075 0.487159 33.1508 1.80547 34.2782C3.04365 35.6191 4.81476 36.4651 6.78823 36.4651C8.52928 36.4651 10.1101 35.8066 11.3102 34.7331C12.2198 34.0068 13.0051 33.1308 13.6783 32.2988L29.3639 12.9495C31.6279 10.0682 28.7548 8.65148 28.7548 8.65148Z" fill="white"/>
</svg>
