<svg width="24" height="24" viewBox="0 0 24 24" fill="none" xmlns="http://www.w3.org/2000/svg">
<g opacity="0.6">
<path fill-rule="evenodd" clip-rule="evenodd" d="M21.0023 5.46821C21.0022 4.91643 20.5546 4.46943 20.0028 4.46943H17.3512C17.296 4.46943 17.2512 4.42466 17.2512 4.36943V3.75006C17.2512 3.33581 16.9154 3 16.5012 3C16.0869 3 15.7511 3.33582 15.7511 3.75006V4.36943C15.7511 4.42466 15.7063 4.46943 15.6511 4.46943H12.8508C12.7956 4.46943 12.7508 4.42466 12.7508 4.36943V3.75006C12.7508 3.33581 12.415 3 12.0008 3C11.5865 3 11.2507 3.33582 11.2507 3.75006V4.36943C11.2507 4.42466 11.2059 4.46943 11.1507 4.46943H8.35045C8.29522 4.46943 8.25045 4.42466 8.25045 4.36943V3.75006C8.25045 3.33581 7.91464 3 7.50039 3C7.08614 3 6.75032 3.33582 6.75032 3.75006V4.36943C6.75032 4.42466 6.70555 4.46943 6.65032 4.46943H4.00173C3.44932 4.46943 3.00144 4.91721 3.00111 5.46962C3.00092 5.77742 3.00069 6.1024 3.00048 6.40845C3.0001 6.96074 3.44772 7.40828 4 7.40828H20.0015C20.5538 7.40828 21.0017 6.96069 21.002 6.4084C21.0022 6.12308 21.0023 5.81055 21.0023 5.46821Z" fill="white"/>
<path fill-rule="evenodd" clip-rule="evenodd" d="M18.0003 13.4544C18.0003 13.7651 17.7484 14.017 17.4377 14.017H15.5625C15.2519 14.017 15 13.7651 15 13.4544V11.6407C15 11.33 15.2519 11.0781 15.5625 11.0781H17.4377C17.7484 11.0781 18.0003 11.33 18.0003 11.6407V13.4544ZM13.5003 13.4544C13.5003 13.7651 13.2484 14.017 12.9377 14.017H11.0625C10.7519 14.017 10.5 13.7651 10.5 13.4544V11.6407C10.5 11.33 10.7519 11.0781 11.0625 11.0781H12.9377C13.2484 11.0781 13.5003 11.33 13.5003 11.6407V13.4544ZM13.5003 17.8646C13.5003 18.1753 13.2484 18.4271 12.9377 18.4271H11.0625C10.7519 18.4271 10.5 18.1753 10.5 17.8646V16.0508C10.5 15.7401 10.7519 15.4883 11.0625 15.4883H12.9377C13.2484 15.4883 13.5003 15.7401 13.5003 16.0508V17.8646ZM9.00026 13.4544C9.00026 13.7651 8.7484 14.017 8.43771 14.017H6.56255C6.25186 14.017 6 13.7651 6 13.4544V11.6407C6 11.33 6.25186 11.0781 6.56255 11.0781H8.43771C8.7484 11.0781 9.00026 11.33 9.00026 11.6407V13.4544ZM9.00026 17.8646C9.00026 18.1753 8.7484 18.4271 8.43771 18.4271H6.56255C6.25186 18.4271 6 18.1753 6 17.8646V16.0508C6 15.7401 6.25186 15.4883 6.56255 15.4883H8.43771C8.7484 15.4883 9.00026 15.7401 9.00026 16.0508V17.8646ZM4 8.875C3.44772 8.875 3 9.32272 3 9.875V18.7476C3 19.9903 4.00544 20.9978 5.24819 20.9978C8.80241 20.9978 15.2572 20.9978 18.7557 20.9978C19.9984 20.9978 21.0015 19.9903 21.0015 18.7476V9.875C21.0015 9.32271 20.5538 8.875 20.0015 8.875H4Z" fill="white"/>
</g>
</svg>
