<svg width="32" height="32" viewBox="0 0 32 32" fill="none" xmlns="http://www.w3.org/2000/svg">
<rect width="32" height="32" rx="4.57142" fill="#0580A4"/>
<path fill-rule="evenodd" clip-rule="evenodd" d="M9.68911 11.2887C9.68911 9.97019 10.919 8.5 12.0405 8.5C12.0405 8.5 12.9555 8.5 13.6004 9.24739C13.6858 9.34647 13.6604 9.49021 13.5481 9.55735C13.046 9.85745 12.0405 10.4584 12.0405 13.1306C12.0405 14.1643 12.7777 15.5795 13.1635 16.2494C13.2897 16.4686 13.2419 16.7501 13.0437 16.9074C12.8381 17.0707 12.5208 17.3226 12.0405 17.7041C11.1147 18.4397 10.6923 18.7803 10.2853 19.3855C10.118 19.6344 9.84615 19.7992 9.54622 19.7992H8.66651C8.55406 19.7992 8.43837 19.7817 8.35037 19.7117C7.9108 19.3621 7.83301 18.4239 7.83301 17.8181C7.83301 17.1289 8.63144 16.0217 10.8125 14.707C10.9901 14.6317 10.9901 14.2159 10.8125 14.0291C9.82048 13.1674 9.68911 12.2304 9.68911 11.2887ZM20.3195 12.9166C20.3195 10.9654 18.8187 9.4375 16.9895 9.4375C15.1604 9.4375 13.6596 11.0261 13.6596 12.9166C13.6596 14.7679 14.2141 15.4394 14.9213 16.2958C14.9363 16.3139 14.9513 16.332 14.9664 16.3503C15.1457 16.5677 15.4313 17.1445 14.9664 17.517C14.6089 17.7928 14.2628 18.0491 13.9344 18.2922C12.3373 19.4748 11.1622 20.345 11.1622 21.6241C11.1622 22.7083 11.4522 23.1423 12.5792 23.474C12.6367 23.4909 12.6969 23.499 12.7568 23.499H21.0999C21.1807 23.499 21.2618 23.4874 21.3389 23.463C22.8169 22.9965 22.8169 22.4868 22.8169 21.6241C22.8169 20.3707 21.598 19.4599 18.9384 17.5548C18.9036 17.53 18.8688 17.5029 18.844 17.4681C18.6567 17.205 18.6705 16.586 18.8855 16.3503C19.7966 15.4793 20.3195 14.8677 20.3195 12.9166Z" fill="white"/>
<path fill-rule="evenodd" clip-rule="evenodd" d="M25.8402 10.3324H24.0034V8.5H22.6701V10.3324H20.8403V11.6657H22.6701V13.5H24.0034V11.6657H25.8402V10.3324Z" fill="white"/>
</svg>
