<svg width="40" height="40" viewBox="0 0 40 40" fill="none" xmlns="http://www.w3.org/2000/svg">
<circle cx="20" cy="20" r="20" fill="#6872E5"/>
<path fill-rule="evenodd" clip-rule="evenodd" d="M12.4994 11.75V13.25H18.1244C18.5969 13.25 19.0409 13.472 19.3244 13.85L21.1244 16.25H27.4994V11.75C27.4994 11.336 27.1634 11 26.7494 11H13.2494C12.8354 11 12.4994 11.336 12.4994 11.75Z" fill="#F8FAFB"/>
<path fill-rule="evenodd" clip-rule="evenodd" d="M28.25 17.749H20.375L18.35 15.049C18.2083 14.86 17.9855 14.749 17.75 14.749H11.75C11.3353 14.749 11 15.085 11 15.499V28.249C11 28.663 11.3353 28.999 11.75 28.999H28.25C28.6647 28.999 29 28.663 29 28.249V18.499C29 18.085 28.6647 17.749 28.25 17.749Z" fill="#F8FAFB"/>
</svg>
