<svg width="24" height="24" viewBox="0 0 24 24" fill="none" xmlns="http://www.w3.org/2000/svg">
<g opacity="0.6">
<path fill-rule="evenodd" clip-rule="evenodd" d="M9.75 3H3.75C3.336 3 3 3.33525 3 3.75V9.75C3 10.1648 3.336 10.5 3.75 10.5H9.75C10.164 10.5 10.5 10.1648 10.5 9.75V3.75C10.5 3.33525 10.164 3 9.75 3Z" fill="white"/>
<path fill-rule="evenodd" clip-rule="evenodd" d="M20.25 3H14.25C13.836 3 13.5 3.33525 13.5 3.75V9.75C13.5 10.1648 13.836 10.5 14.25 10.5H20.25C20.664 10.5 21 10.1648 21 9.75V3.75C21 3.33525 20.664 3 20.25 3Z" fill="white"/>
<path fill-rule="evenodd" clip-rule="evenodd" d="M9.75 13.5H3.75C3.336 13.5 3 13.8353 3 14.25V20.25C3 20.6648 3.336 21 3.75 21H9.75C10.164 21 10.5 20.6648 10.5 20.25V14.25C10.5 13.8353 10.164 13.5 9.75 13.5Z" fill="white"/>
<path fill-rule="evenodd" clip-rule="evenodd" d="M20.25 13.5H14.25C13.836 13.5 13.5 13.8353 13.5 14.25V20.25C13.5 20.6648 13.836 21 14.25 21H20.25C20.664 21 21 20.6648 21 20.25V14.25C21 13.8353 20.664 13.5 20.25 13.5Z" fill="white"/>
</g>
</svg>
