<svg width="16" height="14" viewBox="0 0 16 14" fill="none" xmlns="http://www.w3.org/2000/svg">
<path fill-rule="evenodd" clip-rule="evenodd" d="M1.74998 10.3747C1.40499 10.3747 1.125 9.75362 1.125 10.0797V11.3874C1.125 12.6457 2.14282 13.6659 3.4012 13.6659C5.9927 13.6659 10.0066 13.6659 12.5983 13.6659C13.8567 13.6659 14.8745 12.6457 14.8745 11.3874V10.0799C14.8745 9.75381 14.5945 10.3747 14.2495 10.3747H9.24971V10.3747C9.24971 10.7009 8.98523 10.9654 8.65898 10.9654H7.34053C7.01428 10.9654 6.7498 10.7009 6.7498 10.3747V10.3747H1.74998Z" fill="#98A5A9"/>
<path fill-rule="evenodd" clip-rule="evenodd" d="M9.87501 2.10571H6.12515V1.51498H9.87501V2.10571ZM15.5008 4.1058C15.5008 3.00123 14.6054 2.10553 13.5008 2.10553H11.126V0.924072C11.126 0.59799 10.846 0.333344 10.501 0.333344H5.50115C5.15617 0.333344 4.87618 0.59799 4.87618 0.924072V2.10553H2.49942C1.39569 2.10553 0.500761 2.99971 0.500793 4.10344C0.500826 5.20464 0.501334 6.27566 0.501334 6.747V6.747C0.501334 8.09823 1.59603 9.19427 2.94726 9.19427H6.75111V8.01281H9.25102V9.19427L13.0951 9.16819C14.4262 9.15916 15.5008 8.07811 15.5008 6.747V6.747C15.5008 6.25028 15.5008 5.25611 15.5008 4.1058Z" fill="#98A5A9"/>
</svg>
