<svg width="24" height="24" viewBox="0 0 24 24" fill="none" xmlns="http://www.w3.org/2000/svg">
<g opacity="0.6">
<path fill-rule="evenodd" clip-rule="evenodd" d="M12.7504 12.651V13.5C12.7504 13.9142 12.4147 14.25 12.0004 14.25C11.5862 14.25 11.2504 13.9142 11.2504 13.5V12C11.2504 11.586 11.5857 11.25 12.0004 11.25C12.7992 11.25 13.5004 10.5488 13.5004 9.75C13.5004 8.95125 12.7992 8.25 12.0004 8.25C11.3914 8.25 10.8064 8.754 10.5934 9.2415C10.4277 9.62025 9.98969 9.795 9.60644 9.6285C9.22694 9.46275 9.05294 9.02025 9.21944 8.64075C9.69794 7.54575 10.8672 6.75 12.0004 6.75C13.6264 6.75 15.0004 8.124 15.0004 9.75C15.0004 11.118 14.0277 12.3083 12.7504 12.651ZM11.998 17.25C11.584 17.25 11.248 16.914 11.248 16.5C11.248 16.086 11.584 15.75 11.998 15.75C12.412 15.75 12.748 16.086 12.748 16.5C12.748 16.914 12.412 17.25 11.998 17.25ZM12 3C7.03725 3 3 7.03725 3 12C3 16.9628 7.03725 21 12 21C16.9628 21 21 16.9628 21 12C21 7.03725 16.9628 3 12 3Z" fill="white"/>
</g>
</svg>
