<svg width="24" height="24" viewBox="0 0 24 24" fill="none" xmlns="http://www.w3.org/2000/svg">
<path fill-rule="evenodd" clip-rule="evenodd" d="M4.49997 16.0496C4.08599 16.0496 3.75 15.3043 3.75 15.6956V17.7205C3.75 18.9789 4.76612 19.999 6.0245 19.999C9.24885 19.999 14.7503 19.999 17.9749 19.999C19.2333 19.999 20.2494 18.9789 20.2494 17.7205V15.6958C20.2494 15.3045 19.9134 16.0496 19.4994 16.0496H13.4997C13.4997 16.4411 13.1823 16.7585 12.7908 16.7585H11.2086C10.8171 16.7585 10.4998 16.4411 10.4998 16.0496H4.49997Z" fill="white"/>
<path fill-rule="evenodd" clip-rule="evenodd" d="M14.2499 6.12684H9.75002V5.41797H14.2499V6.12684ZM21.001 8.12688C21.001 7.02231 20.1055 6.12662 19.001 6.12662H15.7512V4.70887C15.7512 4.31758 15.4152 4 15.0012 4H9.00141C8.58742 4 8.25144 4.31758 8.25144 4.70887V6.12662H4.99976C3.89603 6.12662 3.00106 7.02068 3.00099 8.12441C3.00089 9.57935 3.00163 11.0738 3.00163 11.6964C3.00163 13.3179 4.31526 14.6331 5.93673 14.6331H10.5014V13.2154H13.5013V14.6331L18.1141 14.6018C19.7114 14.591 21.001 13.2937 21.001 11.6964C21.001 11.0434 21.001 9.67412 21.001 8.12688Z" fill="white"/>
</svg>
