<svg width="13" height="16" viewBox="0 0 13 16" fill="none" xmlns="http://www.w3.org/2000/svg">
<path fill-rule="evenodd" clip-rule="evenodd" d="M4.17529 6.26274C4.17529 5.11213 5.11164 4.17578 6.26225 4.17578C7.41286 4.17578 8.34921 5.11213 8.34921 6.26274C8.34921 7.41335 7.41286 8.3497 6.26225 8.3497C5.11164 8.3497 4.17529 7.41335 4.17529 6.26274ZM6.26087 16C6.44661 16 6.624 15.9263 6.75478 15.7948C6.98991 15.5569 12.5217 9.94017 12.5217 6.26087C12.5217 2.34157 9.33844 0 6.26087 0C3.1833 0 0 2.34157 0 6.26087C0 9.94017 5.53183 15.5569 5.76696 15.7948C5.89774 15.9263 6.07513 16 6.26087 16Z" fill="#98A5A9"/>
</svg>
