<svg width="24" height="24" viewBox="0 0 24 24" fill="none" xmlns="http://www.w3.org/2000/svg">
<g opacity="0.6">
<path fill-rule="evenodd" clip-rule="evenodd" d="M3.99587 5.00002C3.44358 5.00001 3 5.44773 3 6.00001V7.33336C3 7.64447 3.15 7.8778 3.375 8.03336L11.6249 12.7001C11.7749 12.7778 11.8499 12.7778 11.9999 12.7778C12.1499 12.7778 12.2249 12.7778 12.3749 12.7001L20.6248 8.03336C20.8498 7.8778 20.9998 7.64447 20.9998 7.33336V6.00013C20.9998 5.4478 20.5587 5.00005 20.0064 5.00007C16.6796 5.00018 7.42927 5.00005 3.99587 5.00002Z" fill="white"/>
<path d="M11.9999 14.3343C12.3497 14.3343 12.6994 14.2667 12.9883 14.0682C13.0302 14.0395 13.0722 14.0108 13.1166 13.986L19.5128 10.4191C20.1793 10.0474 20.9998 10.5293 20.9998 11.2925V18.001C20.9998 18.5533 20.5521 19.001 19.9998 19.001H4C3.44772 19.001 3 18.5533 3 18.001V11.2925C3 10.5293 3.82049 10.0474 4.48705 10.4191L10.8833 13.986C10.9276 14.0108 10.9697 14.0395 11.0115 14.0682C11.3004 14.2667 11.6502 14.3343 11.9999 14.3343Z" fill="white"/>
</g>
</svg>
