<svg width="20" height="20" viewBox="0 0 20 20" fill="none" xmlns="http://www.w3.org/2000/svg">
<circle cx="10" cy="10" r="9" fill="#FF7849" stroke="#2C273D" stroke-width="2"/>
<path d="M7.69957 13V12.2045L10.1605 9.65483C10.4233 9.37784 10.6399 9.13518 10.8104 8.92685C10.9832 8.71615 11.1122 8.5161 11.1974 8.3267C11.2827 8.13731 11.3253 7.93608 11.3253 7.72301C11.3253 7.48153 11.2685 7.2732 11.1548 7.09801C11.0412 6.92045 10.8861 6.78433 10.6896 6.68963C10.4931 6.59257 10.2718 6.54403 10.0256 6.54403C9.76515 6.54403 9.53788 6.5973 9.34375 6.70384C9.14962 6.81037 9.00047 6.9607 8.89631 7.15483C8.79214 7.34896 8.74006 7.57623 8.74006 7.83665H7.69247C7.69247 7.39394 7.79427 7.00687 7.99787 6.67543C8.20147 6.34399 8.48082 6.08712 8.83594 5.90483C9.19105 5.72017 9.5947 5.62784 10.0469 5.62784C10.5038 5.62784 10.9063 5.71899 11.2543 5.90128C11.6046 6.0812 11.8781 6.32741 12.0746 6.63991C12.2711 6.95005 12.3693 7.30043 12.3693 7.69105C12.3693 7.96094 12.3184 8.22491 12.2166 8.48295C12.1172 8.741 11.9432 9.02865 11.6946 9.34588C11.446 9.66075 11.1004 10.0431 10.6577 10.4929L9.21236 12.0057V12.0589H12.4865V13H7.69957Z" fill="white"/>
</svg>
