<svg width="24" height="24" viewBox="0 0 24 24" fill="none" xmlns="http://www.w3.org/2000/svg">
<g opacity="0.6">
<path fill-rule="evenodd" clip-rule="evenodd" d="M5 6.18182C5.55228 6.18182 6 5.7341 6 5.18182V5C6 4.44771 5.55228 4 5 4H3.75C3.336 4 3 4.32509 3 4.72727V5.18182C3 5.7341 3.44772 6.18182 4 6.18182H5Z" fill="white"/>
<path fill-rule="evenodd" clip-rule="evenodd" d="M12.75 11.2741C12.75 11.6758 13.0756 12.0014 13.4773 12.0014H18.0227C18.4244 12.0014 18.75 11.6758 18.75 11.2741C18.75 10.8725 18.4244 10.5469 18.0227 10.5469H13.4773C13.0756 10.5469 12.75 10.8725 12.75 11.2741ZM12.75 14.1804C12.75 14.5821 13.0756 14.9077 13.4773 14.9077H15.7727C16.1744 14.9077 16.5 14.5821 16.5 14.1804C16.5 13.7787 16.1744 13.4531 15.7727 13.4531H13.4773C13.0756 13.4531 12.75 13.7787 12.75 14.1804ZM5.25 15.3651C5.25 15.9173 5.69772 16.3651 6.25 16.3651H10.25C10.8023 16.3651 11.25 15.9173 11.25 15.3651V11.5469C11.25 10.9946 10.8023 10.5469 10.25 10.5469H6.25C5.69772 10.5469 5.25 10.9946 5.25 11.5469V15.3651ZM4 7.63672C3.44772 7.63672 3 8.08443 3 8.63672V19.2731C3 19.6753 3.336 20.0004 3.75 20.0004H20.25C20.664 20.0004 21 19.6753 21 19.2731V8.63672C21 8.08443 20.5523 7.63672 20 7.63672H4Z" fill="white"/>
<path fill-rule="evenodd" clip-rule="evenodd" d="M20 6.18182C20.5523 6.18182 21 5.7341 21 5.18182V4.72727C21 4.32509 20.664 4 20.25 4H8.5C7.94772 4 7.5 4.44772 7.5 5V5.18182C7.5 5.7341 7.94772 6.18182 8.5 6.18182H20Z" fill="white"/>
</g>
</svg>
