<svg width="40" height="40" viewBox="0 0 40 40" fill="none" xmlns="http://www.w3.org/2000/svg">
<circle cx="20" cy="20" r="20" fill="#EEA401"/>
<path fill-rule="evenodd" clip-rule="evenodd" d="M13.4551 14.1303C13.4551 13.6983 13.8208 13.3477 14.2733 13.3477H14.9096C15.4619 13.3477 15.9096 13.7954 15.9096 14.3477V15.6955C15.9096 16.1275 16.2754 16.4781 16.7278 16.4781H18.3642C18.8166 16.4781 19.1824 16.1275 19.1824 15.6955C19.1824 15.2643 19.5489 14.9129 20.0005 14.9129C20.4522 14.9129 20.8187 15.2643 20.8187 15.6955C20.8187 16.1275 21.1844 16.4781 21.6369 16.4781H23.2733C23.7257 16.4781 24.0914 16.1275 24.0914 15.6955V14.3477C24.0914 13.7954 24.5392 13.3477 25.0914 13.3477H25.7278C26.1803 13.3477 26.546 13.6983 26.546 14.1303V25.8694C26.546 26.3014 26.1803 26.652 25.7278 26.652H14.2733C13.8208 26.652 13.4551 26.3014 13.4551 25.8694V14.1303ZM11 28.2174C11 28.6494 11.3657 29 11.8182 29H28.1818C28.6343 29 29 28.6494 29 28.2174V11.7826C29 11.3506 28.6343 11 28.1818 11H11.8182C11.3657 11 11 11.3506 11 11.7826V28.2174Z" fill="#F8FAFB"/>
<path fill-rule="evenodd" clip-rule="evenodd" d="M23.272 19.6107C23.272 19.1785 22.9216 18.8281 22.4894 18.8281H17.5092C17.0769 18.8281 16.7266 19.1785 16.7266 19.6107C16.7266 20.043 17.0769 20.3933 17.5092 20.3933H22.4894C22.9216 20.3933 23.272 20.043 23.272 19.6107Z" fill="#F8FAFB"/>
<path fill-rule="evenodd" clip-rule="evenodd" d="M23.272 22.7357C23.272 22.3035 22.9216 21.9531 22.4894 21.9531H17.5092C17.0769 21.9531 16.7266 22.3035 16.7266 22.7357C16.7266 23.168 17.0769 23.5183 17.5092 23.5183H22.4894C22.9216 23.5183 23.272 23.168 23.272 22.7357Z" fill="#F8FAFB"/>
</svg>
