<svg width="16" height="4" viewBox="0 0 16 4" fill="none" xmlns="http://www.w3.org/2000/svg">
<path d="M8.0013 3.33464C8.73768 3.33464 9.33464 2.73768 9.33464 2.0013C9.33464 1.26492 8.73768 0.667969 8.0013 0.667969C7.26492 0.667969 6.66797 1.26492 6.66797 2.0013C6.66797 2.73768 7.26492 3.33464 8.0013 3.33464Z" fill="#98A5A9"/>
<path d="M2.0013 3.33464C2.73768 3.33464 3.33464 2.73768 3.33464 2.0013C3.33464 1.26492 2.73768 0.667969 2.0013 0.667969C1.26492 0.667969 0.667969 1.26492 0.667969 2.0013C0.667969 2.73768 1.26492 3.33464 2.0013 3.33464Z" fill="#98A5A9"/>
<path d="M14.0013 3.33464C14.7377 3.33464 15.3346 2.73768 15.3346 2.0013C15.3346 1.26492 14.7377 0.667969 14.0013 0.667969C13.2649 0.667969 12.668 1.26492 12.668 2.0013C12.668 2.73768 13.2649 3.33464 14.0013 3.33464Z" fill="#98A5A9"/>
</svg>
