<svg width="88" height="36" viewBox="0 0 88 36" fill="none" xmlns="http://www.w3.org/2000/svg">
<circle cx="18" cy="18" r="17.5" stroke="#E1EAED"/>
<path fill-rule="evenodd" clip-rule="evenodd" d="M13.2491 11.9016H10.8008V19.1016H13.2491" fill="#C0C9CC"/>
<path fill-rule="evenodd" clip-rule="evenodd" d="M14.1484 19.1008L16.1574 26.3008C17.267 26.3008 18.1664 25.4217 18.1664 24.3371V20.4099H23.1908C24.4223 20.4099 25.3638 19.3371 25.1763 18.1478L24.4551 13.5659C24.3044 12.6077 23.4613 11.9008 22.4696 11.9008H14.1484V19.1008Z" fill="#C0C9CC"/>
<circle cx="70" cy="18" r="17.5" stroke="#E1EAED"/>
<path fill-rule="evenodd" clip-rule="evenodd" d="M65.2491 24.3016H62.8008V17.1016H65.2491" fill="#C0C9CC"/>
<path fill-rule="evenodd" clip-rule="evenodd" d="M66.1484 17.1023L68.1574 9.90234C69.267 9.90234 70.1664 10.7814 70.1664 11.866V15.7933H75.1908C76.4223 15.7933 77.3638 16.8661 77.1763 18.0554L76.4551 22.6372C76.3044 23.5954 75.4613 24.3023 74.4696 24.3023H66.1484V17.1023Z" fill="#C0C9CC"/>
</svg>
