<svg width="24" height="24" viewBox="0 0 24 24" fill="none" xmlns="http://www.w3.org/2000/svg">
<g opacity="0.6">
<path fill-rule="evenodd" clip-rule="evenodd" d="M11.9999 5.25C13.6273 5.25 15.1687 5.7375 16.4426 6.62475L13.4939 9.1695L20.9941 9.90675L20.6415 3L17.6511 5.5815C16.0556 4.3965 14.0822 3.75 11.9999 3.75C7.0377 3.75 3 7.45125 3 12H4.63635C4.63635 8.27775 7.93933 5.25 11.9999 5.25" fill="white"/>
<path fill-rule="evenodd" clip-rule="evenodd" d="M12.0001 18.75C10.3727 18.75 8.83127 18.2625 7.55737 17.3752L10.5061 14.8305L3.00586 14.0932L3.35849 21L6.34893 18.4185C7.94437 19.6035 9.91781 20.25 12.0001 20.25C16.9623 20.25 21 16.5488 21 12H19.3636C19.3636 15.7222 16.0607 18.75 12.0001 18.75" fill="white"/>
</g>
</svg>
