<svg width="24" height="24" viewBox="0 0 24 24" fill="none" xmlns="http://www.w3.org/2000/svg">
<g opacity="0.6">
<path fill-rule="evenodd" clip-rule="evenodd" d="M11.9995 14.456C10.6086 14.456 9.54492 13.3923 9.54492 12.0014C9.54492 10.6105 10.6086 9.54688 11.9995 9.54688C13.3904 9.54688 14.454 10.6105 14.454 12.0014C14.454 13.3923 13.3904 14.456 11.9995 14.456ZM19.3636 10.3636H19.0543C18.6078 10.3636 18.2215 10.0649 18.0541 9.65092C18.0101 9.54204 17.9632 9.43317 17.9132 9.32429C17.7253 8.91438 17.7849 8.42424 18.1037 8.10537L18.3 7.90909C18.9545 7.25455 18.9545 6.27273 18.3 5.61818C17.6455 4.96364 16.6636 4.96364 16.0091 5.61818L15.8524 5.77486C15.5154 6.11192 14.9902 6.15502 14.5552 5.96013C14.4715 5.92263 14.386 5.88692 14.2987 5.85302C13.8709 5.68687 13.5545 5.29627 13.5545 4.83741V4.63636C13.5545 3.73636 12.8182 3 11.9182 3C11.0182 3 10.2818 3.73636 10.2818 4.63636V4.97924C10.2818 5.40967 10.0036 5.78368 9.59816 5.92819C9.52588 5.95396 9.45279 5.98097 9.37908 6.00961C8.93831 6.18089 8.42056 6.10154 8.10639 5.7481L7.99091 5.61818C7.33636 4.96364 6.35455 4.96364 5.7 5.61818C5.04545 6.27273 5.04545 7.25455 5.7 7.90909L5.83735 8.04645C6.18302 8.39211 6.21648 8.93434 6.02529 9.38424C5.98856 9.47066 5.95502 9.55708 5.92383 9.6435C5.77222 10.0635 5.39218 10.3636 4.9457 10.3636H4.63636C3.73636 10.3636 3 11.1 3 12C3 12.9 3.73636 13.6364 4.63636 13.6364H4.9457C5.39218 13.6364 5.77854 13.9351 5.94587 14.3491C5.98988 14.458 6.03685 14.5668 6.08677 14.6757C6.27473 15.0856 6.21515 15.5758 5.89628 15.8946L5.7 16.0909C5.04545 16.7455 5.04545 17.7273 5.7 18.3818C6.35455 19.0364 7.33636 19.0364 7.99091 18.3818L8.14758 18.2251C8.48465 17.8881 9.00982 17.845 9.44484 18.0399C9.52855 18.0774 9.61405 18.1131 9.70134 18.147C10.1291 18.3131 10.4455 18.7037 10.4455 19.1626V19.3636C10.4455 20.2636 11.1818 21 12.0818 21C12.9818 21 13.7182 20.2636 13.7182 19.3636V19.0543C13.7182 18.6078 14.017 18.2215 14.4309 18.0541C14.5398 18.0101 14.6487 17.9632 14.7575 17.9132C15.1674 17.7253 15.6576 17.7849 15.9764 18.1037L16.1727 18.3C16.8273 18.9545 17.8091 18.9545 18.4636 18.3C19.1182 17.6455 19.1182 16.6636 18.4636 16.0091L18.307 15.8524C17.9699 15.5154 17.9268 14.9902 18.1217 14.5552C18.1592 14.4715 18.1949 14.386 18.2288 14.2987C18.3949 13.8709 18.7855 13.5545 19.2444 13.5545H19.3636C20.2636 13.5545 21 12.8182 21 11.9182C21 11.1 20.2636 10.3636 19.3636 10.3636Z" fill="white"/>
</g>
</svg>
