<svg width="40" height="40" viewBox="0 0 40 40" fill="none" xmlns="http://www.w3.org/2000/svg">
<circle cx="20" cy="20" r="20" fill="#0BAD90"/>
<path fill-rule="evenodd" clip-rule="evenodd" d="M25.5841 17.2497L18.9175 23.9163C18.7508 24.083 18.5841 24.1663 18.3341 24.1663C18.0841 24.1663 17.9175 24.083 17.7508 23.9163L14.4175 20.583C14.0841 20.2497 14.0841 19.7497 14.4175 19.4163C14.7508 19.083 15.2508 19.083 15.5841 19.4163L18.3341 22.1663L24.4175 16.083C24.7508 15.7497 25.2508 15.7497 25.5841 16.083C25.9175 16.4163 25.9175 16.9163 25.5841 17.2497ZM20 10C14.5 10 10 14.5 10 20C10 25.5 14.5 30 20 30C25.5 30 30 25.5 30 20C30 14.5 25.5 10 20 10Z" fill="#F8FAFB"/>
</svg>
