<svg width="24" height="24" viewBox="0 0 24 24" fill="none" xmlns="http://www.w3.org/2000/svg">
<g opacity="0.6">
<path fill-rule="evenodd" clip-rule="evenodd" d="M20.7645 6.34647C20.7645 4.76423 19.2887 3 17.9428 3C17.9428 3 16.8208 3 16.0457 3.92661C15.9591 4.03025 15.9841 4.17982 16.0968 4.25433C16.6854 4.64341 17.9428 5.47463 17.9428 8.68282C17.9428 10.2836 17.1141 11.5589 16.6278 12.1694C16.4417 12.4031 16.4294 12.7323 16.646 12.9381C16.8969 13.1766 17.3039 13.5374 17.9428 14.0449C19.0544 14.928 19.5389 15.3473 20.0222 16.069C20.2206 16.3653 20.5451 16.559 20.9017 16.559H21.9635C22.0984 16.559 22.2365 16.5375 22.3442 16.4562C22.8892 16.0444 23.0678 14.9567 22.9778 14.2492C22.8293 13.0809 22.0337 12.0261 19.4164 10.4484C19.2033 10.358 19.2033 9.85907 19.4164 9.63496C20.6069 8.60084 20.7645 7.47653 20.7645 6.34647ZM3.22732 6.34647C3.22732 4.76423 4.70316 3 6.04905 3C6.04905 3 7.14694 3 7.92081 3.89686C8.0234 4.01576 7.9929 4.18825 7.8581 4.26881C7.25558 4.62894 6.04905 5.35007 6.04905 8.55676C6.04905 9.79716 6.93361 11.4954 7.39655 12.2992C7.54806 12.5623 7.49068 12.9002 7.25289 13.0889C7.0061 13.2848 6.62536 13.5871 6.04905 14.0449C4.93798 14.9276 4.43112 15.3363 3.94281 16.0626C3.742 16.3613 3.41577 16.559 3.05586 16.559H2.0002C1.86526 16.559 1.72644 16.5381 1.62083 16.4541C1.09334 16.0345 1 14.9087 1 14.1817C1 13.3547 1.95812 12.0261 4.57543 10.4484C4.78853 10.358 4.78853 9.85907 4.57543 9.63496C3.38497 8.60084 3.22732 7.47653 3.22732 6.34647ZM15.9835 8.29988C15.9835 5.95849 14.1826 4.125 11.9876 4.125C9.79272 4.125 7.99175 6.03127 7.99175 8.29988C7.99175 10.5215 8.65715 11.3273 9.50578 12.3549C9.52372 12.3766 9.54174 12.3985 9.55984 12.4204C9.77508 12.6813 10.1177 13.3734 9.55984 13.8204C9.13091 14.1513 8.71552 14.4589 8.32153 14.7506C6.405 16.1698 4.99483 17.214 4.99483 18.749C4.99483 20.0499 5.34282 20.5707 6.69527 20.9688C6.76429 20.9891 6.83646 20.9988 6.9084 20.9988H16.9201C17.0171 20.9988 17.1144 20.9848 17.2068 20.9557C18.9805 20.3958 18.9805 19.7842 18.9805 18.749C18.9805 17.2448 17.5177 16.1518 14.3262 13.8658C14.2846 13.836 14.2428 13.8034 14.2131 13.7617C13.9882 13.446 14.0048 12.7032 14.2628 12.4204C15.3561 11.3752 15.9835 10.6413 15.9835 8.29988Z" fill="white"/>
</g>
</svg>
