<svg width="17" height="16" viewBox="0 0 17 16" fill="none" xmlns="http://www.w3.org/2000/svg">
<path fill-rule="evenodd" clip-rule="evenodd" d="M8.0277 5C9.7277 5 11.0277 6.3 11.0277 8C11.0277 9.7 9.7277 11 8.0277 11C6.3277 11 5.0277 9.7 5.0277 8C5.0277 6.3 6.3277 5 8.0277 5M8.0277 14C11.6277 14 14.4277 10.9 15.6277 9.1C16.1277 8.4 16.1277 7.5 15.6277 6.8C14.4277 5.1 11.6277 2 8.0277 2C4.4277 2 1.6277 5.1 0.427704 6.9C-0.0722961 7.6 -0.0722961 8.5 0.427704 9.1C1.6277 10.9 4.4277 14 8.0277 14" fill="#98A5A9"/>
</svg>
