<svg width="16" height="16" viewBox="0 0 16 16" fill="none" xmlns="http://www.w3.org/2000/svg">
<path fill-rule="evenodd" clip-rule="evenodd" d="M12.343 7.27361C12.3067 6.50634 12.2121 5.77689 12.0703 5.0918H13.8536C14.1881 5.76307 14.415 6.49689 14.5016 7.27361H12.343ZM13.8536 10.9084H12.0703C12.2121 10.2233 12.3067 9.49384 12.343 8.72656H14.5016C14.415 9.50329 14.1881 10.2371 13.8536 10.9084ZM11.0312 13.796C11.2749 13.3676 11.4909 12.8876 11.6742 12.3633H12.8654C12.3447 12.9429 11.7265 13.4309 11.0312 13.796ZM8.72656 7.27361V5.0918H10.5855C10.7404 5.75289 10.8487 6.48234 10.8895 7.27361H8.72656ZM10.5855 10.9084H8.72656V8.72656H10.8895C10.8487 9.51784 10.7404 10.2473 10.5855 10.9084ZM8.72656 14.3015V12.3633H10.1258C9.73674 13.2956 9.2422 13.9676 8.72656 14.3015ZM8.72656 1.69922C9.2422 2.03304 9.73674 2.70504 10.1258 3.6374H8.72656V1.69922ZM12.8654 3.63585H11.6742C11.4909 3.11149 11.2749 2.63149 11.0312 2.20312C11.7265 2.56822 12.3447 3.05622 12.8654 3.63585ZM7.27232 3.6374H5.87305C6.26141 2.70504 6.75668 2.03304 7.27232 1.69922V3.6374ZM7.27228 7.27361H5.10938C5.1501 6.48234 5.25847 5.75289 5.41265 5.0918H7.27228V7.27361ZM7.27228 10.9084H5.41265C5.25847 10.2473 5.1501 9.51784 5.10938 8.72656H7.27228V10.9084ZM7.27232 14.3015C6.75668 13.9676 6.26141 13.2956 5.87305 12.3633H7.27232V14.3015ZM4.32531 3.63708H3.13477C3.65477 3.05744 4.27295 2.56944 4.96822 2.20508C4.72458 2.63271 4.50858 3.11271 4.32531 3.63708ZM3.13477 12.3633H4.32531C4.50858 12.8876 4.72458 13.3676 4.96822 13.7953C4.27295 13.4309 3.65477 12.9429 3.13477 12.3633ZM2.14532 10.9084C1.81077 10.2371 1.58387 9.50329 1.49805 8.72656H3.65587C3.69223 9.49384 3.78677 10.2233 3.92859 10.9084H2.14532ZM2.14532 5.0918H3.92859C3.78677 5.77689 3.69223 6.50634 3.65587 7.27361H1.49805C1.58387 6.49689 1.81077 5.76307 2.14532 5.0918ZM14.9716 4.08873C14.9622 4.06691 14.9462 4.05018 14.9353 4.02982C13.5542 1.62618 10.9658 0 8 0C5.03345 0 2.44509 1.62618 1.064 4.03055C1.05309 4.05091 1.03709 4.06691 1.02836 4.08873C0.376 5.24655 0 6.57891 0 8C0 9.42109 0.376 10.7535 1.02836 11.9113C1.03709 11.9331 1.05309 11.9491 1.064 11.9695C2.44509 14.3738 5.03345 16 8 16C10.9658 16 13.5542 14.3738 14.9353 11.9702C14.9462 11.9498 14.9622 11.9331 14.9716 11.9113C15.6233 10.7535 16 9.42109 16 8C16 6.57891 15.6233 5.24655 14.9716 4.08873Z" fill="#F8FAFB"/>
</svg>
